<?xml version="1.0" encoding="UTF-8" standalone="no"?>
<!-- Created with Inkscape (http://www.inkscape.org/) -->

<svg
   xmlns:dc="http://purl.org/dc/elements/1.1/"
   xmlns:cc="http://creativecommons.org/ns#"
   xmlns:rdf="http://www.w3.org/1999/02/22-rdf-syntax-ns#"
   xmlns:svg="http://www.w3.org/2000/svg"
   xmlns="http://www.w3.org/2000/svg"
   xmlns:sodipodi="http://sodipodi.sourceforge.net/DTD/sodipodi-0.dtd"
   xmlns:inkscape="http://www.inkscape.org/namespaces/inkscape"
   width="340.26556"
   height="74.542549"
   id="svg2"
   version="1.1"
   inkscape:version="0.48.3.1 r9886"
   sodipodi:docname="logo.svg"
   inkscape:export-filename="/home/valessio/Desenvolvimento/ColaboLei/public/artwork/logo.png"
   inkscape:export-xdpi="63.408833"
   inkscape:export-ydpi="63.408833">
  <defs
     id="defs4">
    <inkscape:path-effect
       is_visible="true"
       id="path-effect3917"
       effect="spiro" />
    <inkscape:path-effect
       effect="spiro"
       id="path-effect3913"
       is_visible="true" />
    <inkscape:path-effect
       is_visible="true"
       id="path-effect3897"
       effect="spiro" />
    <inkscape:path-effect
       effect="spiro"
       id="path-effect3111"
       is_visible="true" />
    <inkscape:path-effect
       effect="spiro"
       id="path-effect3107"
       is_visible="true" />
    <inkscape:path-effect
       is_visible="true"
       id="path-effect3917-4"
       effect="spiro" />
    <inkscape:path-effect
       is_visible="true"
       id="path-effect3917-4-9"
       effect="spiro" />
    <inkscape:path-effect
       is_visible="true"
       id="path-effect3917-4-9-0"
       effect="spiro" />
    <inkscape:path-effect
       is_visible="true"
       id="path-effect3917-4-9-0-2"
       effect="spiro" />
  </defs>
  <sodipodi:namedview
     id="base"
     pagecolor="#ffffff"
     bordercolor="#666666"
     borderopacity="1.0"
     inkscape:pageopacity="0.0"
     inkscape:pageshadow="2"
     inkscape:zoom="1.3196576"
     inkscape:cx="353.61017"
     inkscape:cy="-28.085028"
     inkscape:document-units="px"
     inkscape:current-layer="layer1"
     showgrid="false"
     showguides="true"
     inkscape:guide-bbox="true"
     inkscape:window-width="1366"
     inkscape:window-height="716"
     inkscape:window-x="0"
     inkscape:window-y="27"
     inkscape:window-maximized="1"
     fit-margin-top="0"
     fit-margin-left="0"
     fit-margin-right="0"
     fit-margin-bottom="0" />
  <metadata
     id="metadata7">
    <rdf:RDF>
      <cc:Work
         rdf:about="">
        <dc:format>image/svg+xml</dc:format>
        <dc:type
           rdf:resource="http://purl.org/dc/dcmitype/StillImage" />
        <dc:title></dc:title>
      </cc:Work>
    </rdf:RDF>
  </metadata>
  <g
     inkscape:label="Camada 1"
     inkscape:groupmode="layer"
     id="layer1"
     transform="translate(-26.18458,-23.442014)">
    <text
       xml:space="preserve"
       style="font-size:50.3114624px;font-style:normal;font-variant:normal;font-weight:600;font-stretch:normal;text-indent:0;text-align:center;text-decoration:none;line-height:125%;letter-spacing:normal;word-spacing:normal;text-transform:none;direction:ltr;block-progression:tb;writing-mode:lr-tb;text-anchor:middle;baseline-shift:baseline;color:#000000;fill:#000000;fill-opacity:1;fill-rule:nonzero;stroke:none;stroke-width:1px;marker:none;visibility:visible;display:inline;overflow:visible;enable-background:accumulate;font-family:FreeSans;-inkscape-font-specification:FreeSans Semi-Bold"
       x="232.0536"
       y="66.009567"
       id="text3007"
       sodipodi:linespacing="125%"><tspan
         sodipodi:role="line"
         id="tspan3009"
         x="232.0536"
         y="66.009567">Colabo<tspan
   style="color:#000000;fill:#ce5c00;fill-opacity:1;fill-rule:nonzero;stroke:none;stroke-width:1px;marker:none;visibility:visible;display:inline;overflow:visible;enable-background:accumulate"
   id="tspan3083">Le</tspan><tspan
   style="color:#000000;fill:#ce5c00;fill-opacity:1;fill-rule:nonzero;stroke:none;stroke-width:1px;marker:none;visibility:visible;display:inline;overflow:visible;enable-background:accumulate"
   id="tspan3092">i</tspan></tspan></text>
    <text
       xml:space="preserve"
       style="font-size:17.48119545px;font-style:normal;font-variant:normal;font-weight:normal;font-stretch:normal;text-indent:0;text-align:center;text-decoration:none;line-height:125%;letter-spacing:normal;word-spacing:normal;text-transform:none;direction:ltr;block-progression:tb;writing-mode:lr-tb;text-anchor:middle;baseline-shift:baseline;color:#000000;fill:#000000;fill-opacity:1;fill-rule:nonzero;stroke:none;stroke-width:1px;marker:none;visibility:visible;display:inline;overflow:visible;enable-background:accumulate;font-family:FreeSans;-inkscape-font-specification:FreeSans"
       x="232.87201"
       y="88.886902"
       id="text3007-9"
       sodipodi:linespacing="125%"><tspan
         sodipodi:role="line"
         id="tspan3009-2"
         x="232.87201"
         y="88.886902">Todo poder emana do povo</tspan></text>
    <path
       sodipodi:type="arc"
       style="color:#000000;fill:#ce5c00;fill-opacity:1;fill-rule:nonzero;stroke:none;stroke-width:1px;marker:none;visibility:visible;display:inline;overflow:visible;enable-background:accumulate"
       id="path4067"
       sodipodi:cx="44.434101"
       sodipodi:cy="71.064537"
       sodipodi:rx="40.151295"
       sodipodi:ry="40.151295"
       d="m 16.882967,41.857321 a 40.151295,40.151295 0 1 1 -0.376392,0.35969"
       sodipodi:start="3.9561603"
       sodipodi:end="10.226379"
       sodipodi:open="true"
       transform="matrix(0.75376759,0,0,0.75376759,35.959514,6.8071492)" />
    <path
       style="font-size:medium;font-style:normal;font-variant:normal;font-weight:normal;font-stretch:normal;text-indent:0;text-align:start;text-decoration:none;line-height:normal;letter-spacing:normal;word-spacing:normal;text-transform:none;direction:ltr;block-progression:tb;writing-mode:lr-tb;text-anchor:start;baseline-shift:baseline;color:#000000;fill:#000000;fill-opacity:1;stroke:none;stroke-width:1px;marker:none;visibility:visible;display:inline;overflow:visible;enable-background:accumulate;font-family:Sans;-inkscape-font-specification:Sans"
       d="m 64.8465,38.890457 c -0.716614,0.03661 -1.395314,0.190556 -2.04594,0.531944 -0.649605,0.340852 -1.25629,0.858864 -1.677667,1.473073 -0.42207,0.615193 -0.648966,1.331121 -0.695615,2.086856 -0.04149,0.671941 0.05398,1.294338 0.245516,1.882262 0.190961,0.586457 0.459792,1.128002 0.695614,1.636748 0.235768,0.508589 0.466521,0.990419 0.613789,1.473074 0.146756,0.481011 0.207967,0.986355 0.163671,1.432156 -0.05061,0.510763 -0.263707,1.00228 -0.572867,1.473074 -0.310701,0.473145 -0.732753,0.931902 -1.186636,1.350318 -0.908879,0.837845 -2.004015,1.596784 -2.823396,2.782474 -0.607496,0.879063 -1.008015,1.922976 -1.104807,2.987067 -0.0078,0.08401 0.0039,0.161461 0,0.245512 l -2.946148,0.736537 a 0.65501939,0.65501939 0 0 0 0.327349,1.268481 l 2.70064,-0.6547 c 0.09022,0.522666 0.230614,1.026899 0.450106,1.513993 a 0.65476512,0.65476512 0 1 0 1.186636,-0.531944 C 57.961393,60.099481 57.86143,59.584494 57.808481,59.06339 a 0.6626434,0.6626434 0 0 0 -0.04085,-0.695618 c 0.0036,-0.08384 -0.0082,-0.161923 0,-0.245513 0.07605,-0.835958 0.382105,-1.641873 0.859285,-2.332367 0.648246,-0.938032 1.670546,-1.706934 2.65972,-2.618799 0.495143,-0.456441 0.993432,-0.949149 1.391238,-1.554912 0.39933,-0.608117 0.700612,-1.313189 0.777459,-2.086855 0.06711,-0.674135 -0.06392,-1.327735 -0.245515,-1.92318 -0.181159,-0.593804 -0.417146,-1.124262 -0.654701,-1.636749 -0.237474,-0.512333 -0.456282,-1.030314 -0.613771,-1.513993 -0.157042,-0.482216 -0.232449,-0.939872 -0.204602,-1.391236 0.03118,-0.504017 0.199059,-1.006593 0.491022,-1.432156 0.292638,-0.426549 0.677706,-0.818313 1.145732,-1.063887 0.934018,-0.490085 2.153616,-0.518198 3.191654,-0.163675 1.320363,0.450941 2.409399,1.506134 3.109828,2.782473 0.704742,1.284226 1.047411,2.81159 1.145723,4.337385 0.118627,1.840897 -0.102534,3.710663 -0.613779,5.48311 a 0.65501925,0.65501925 0 0 0 0,0.04092 c -0.06237,0.05912 -0.143839,0.102736 -0.204593,0.163674 -0.769481,0.771877 -1.419642,1.695072 -1.71859,2.823393 -0.149656,0.565071 -0.208322,1.202147 -0.122693,1.800424 0.0858,0.599755 0.324451,1.174341 0.695614,1.677668 -0.647115,0.676801 -1.038375,1.553324 -1.063878,2.496043 -0.02799,1.038726 0.374136,2.084466 1.10481,2.82339 0.104612,0.105787 0.214431,0.195081 0.327341,0.286431 -0.918872,0.84513 -2.044791,1.455048 -3.273498,1.677668 -1.143955,0.207267 -2.383513,0.105315 -3.478092,-0.286431 a 0.65476512,0.65476512 0 1 0 -0.409186,1.227562 c 1.314245,0.470361 2.718349,0.617128 4.091871,0.368269 1.100716,-0.199432 2.145993,-0.638645 3.068905,-1.26848 -0.100172,0.31922 -0.180065,0.646897 -0.204584,0.982048 -0.08042,1.099306 0.255737,2.205669 0.94113,3.068906 0.478767,0.603006 1.12777,1.033592 1.800416,1.350317 0.215772,0.101596 0.432857,0.170776 0.654692,0.245512 -0.595269,0.632855 -1.029521,1.420033 -1.145714,2.29145 -0.1737,1.302629 0.313428,2.616296 1.268481,3.519007 0.04969,0.04692 0.112345,0.0785 0.16368,0.122757 -1.512236,1.033978 -3.370972,1.608112 -5.196681,1.554908 -2.77314,-0.08079 -5.51081,-1.612062 -7.038028,-3.928192 A 0.65476512,0.65476512 0 0 0 59.7318,75.758233 0.65476512,0.65476512 0 0 0 59.40444,76.781202 c 1.773627,2.689837 4.840399,4.407223 8.060994,4.501058 2.31901,0.06757 4.634866,-0.704587 6.465153,-2.127776 0.470797,0.205706 0.942652,0.375358 1.432169,0.450109 0.997162,0.152291 1.980809,0.07167 2.905226,0 1.072231,-0.08307 2.171989,-0.197454 3.273499,-0.572857 1.108913,-0.377941 2.214598,-1.039033 2.905225,-2.086864 0.40481,-0.614207 0.638836,-1.312498 0.695624,-2.045931 0.05662,-0.733408 -0.06264,-1.499488 -0.368282,-2.168694 -0.305504,-0.669191 -0.799881,-1.240111 -1.39123,-1.677668 -0.221735,-0.164085 -0.450245,-0.290021 -0.695614,-0.409186 1.22237,-0.962093 2.116906,-2.314164 2.414204,-3.846361 0.328636,-1.693638 -0.05708,-3.481972 -1.022966,-4.910247 0.337791,-0.61716 0.591358,-1.26934 0.736528,-1.964097 0.349481,-1.672475 0.106983,-3.465267 -0.736528,-4.951167 a 0.65476512,0.65476512 0 0 0 -0.16368,-0.204594 c 0.266706,-0.607685 0.473077,-1.246195 0.531944,-1.92318 0.07048,-0.809849 -0.03757,-1.648882 -0.368264,-2.414204 -0.54832,-1.269073 -1.625903,-2.196129 -2.823399,-2.741555 -1.188989,-0.541554 -2.447102,-0.707626 -3.682694,-0.736538 -1.836204,-0.04295 -3.701942,0.224033 -5.442187,0.818375 -0.0055,-0.110539 0.0064,-0.216728 0,-0.32735 -0.106573,-1.655212 -0.480618,-3.35908 -1.309394,-4.869329 -0.833126,-1.518138 -2.150197,-2.816965 -3.846365,-3.396255 -0.675381,-0.230665 -1.411152,-0.323048 -2.127775,-0.286431 z m 12.684817,9.370388 c 1.127733,0.02639 2.229297,0.175455 3.191664,0.613781 0.953831,0.434452 1.77938,1.185825 2.16867,2.086855 0.235139,0.544133 0.339605,1.148269 0.286438,1.759506 -0.05325,0.612886 -0.277539,1.236902 -0.572857,1.800424 -0.59175,1.12911 -1.573985,2.06582 -2.700633,2.823393 -1.634556,1.099077 -3.494586,1.822646 -5.442196,2.250529 -0.888582,0.195217 -1.768676,0.322301 -2.577875,0.204594 -0.403588,-0.0587 -0.805561,-0.188506 -1.145723,-0.368269 -0.338904,-0.179088 -0.645328,-0.405454 -0.859304,-0.695618 -0.229267,-0.310906 -0.351733,-0.703068 -0.409186,-1.104806 -0.05763,-0.403218 -0.02754,-0.8147 0.08188,-1.227562 0.219255,-0.827549 0.732206,-1.630385 1.391229,-2.291448 1.659194,-1.664332 4.079826,-2.536263 6.42424,-2.373286 a 0.65597879,0.65597879 0 0 0 0.08188,-1.3094 c -1.957385,-0.13607 -3.931383,0.351613 -5.605867,1.350318 0.164874,-0.854942 0.252654,-1.749386 0.286428,-2.618799 1.716602,-0.654022 3.564669,-0.943187 5.401283,-0.900212 z m 5.605858,7.897315 c 0.474901,1.097922 0.652349,2.355264 0.409187,3.519011 -0.282335,1.351161 -1.063605,2.569138 -2.168689,3.396254 -0.900892,0.674275 -2.028023,1.107232 -3.191672,1.350316 -1.165993,0.243578 -2.388427,0.32281 -3.641763,0.409188 -0.919502,0.06337 -1.800552,0.116576 -2.618806,0 -0.810595,-0.115489 -1.574304,-0.4228 -2.086844,-0.941131 -0.470469,-0.47578 -0.754591,-1.172415 -0.736537,-1.841341 0.01659,-0.610071 0.274958,-1.232024 0.695624,-1.677668 0.110904,0.07558 0.208468,0.18269 0.327341,0.245513 0.493685,0.26088 1.025191,0.413969 1.554919,0.491024 1.057377,0.153809 2.074243,0.0049 3.027983,-0.204593 2.085823,-0.45825 4.140826,-1.290839 5.933218,-2.496043 0.915134,-0.615338 1.802914,-1.350011 2.496039,-2.25053 z m 0.122694,6.915265 c 0.549369,1.045681 0.757491,2.274679 0.531944,3.437172 -0.264527,1.363304 -1.087887,2.636755 -2.250533,3.396254 -1.074811,0.702122 -2.441175,1.042523 -3.846356,1.3094 -1.27624,0.24239 -2.539049,0.411994 -3.723607,0.28643 -0.591166,-0.06267 -1.164142,-0.208301 -1.677667,-0.450105 -0.511993,-0.241073 -0.973982,-0.559588 -1.309412,-0.98205 -0.474627,-0.597784 -0.710404,-1.40744 -0.654692,-2.168693 0.05079,-0.694365 0.382451,-1.369059 0.859285,-1.882261 0.173473,0.03931 0.358307,0.09801 0.531953,0.122756 1.003471,0.14297 1.98897,0.06315 2.905226,0 1.248092,-0.08601 2.557979,-0.180963 3.846364,-0.450106 1.29073,-0.269633 2.576225,-0.72676 3.682685,-1.554911 0.411694,-0.308128 0.77477,-0.675449 1.10481,-1.063886 z M 81.254851,71.5436 c 0.491369,0.07199 0.950586,0.277093 1.350317,0.572863 0.410298,0.3036 0.72916,0.722328 0.941121,1.186642 0.211969,0.464306 0.325819,0.964156 0.286437,1.473075 -0.03939,0.508891 -0.210128,1.005978 -0.491012,1.432155 -0.481129,0.729979 -1.303166,1.286897 -2.209629,1.595831 -0.913885,0.311462 -1.93645,0.409635 -2.987061,0.491025 -0.90587,0.07018 -1.760332,0.124849 -2.577875,0 -0.497888,-0.07599 -0.966314,-0.231621 -1.391248,-0.450104 a 0.66799119,0.66799119 0 0 0 -0.04085,-0.04095 c -0.249099,-0.13273 -0.499274,-0.264531 -0.695615,-0.450112 -0.634505,-0.599731 -0.974694,-1.548773 -0.859285,-2.414202 0.115344,-0.865426 0.662671,-1.715251 1.432151,-2.127773 1.361815,0.117008 2.681439,-0.09056 3.928191,-0.32735 1.08951,-0.206924 2.237878,-0.451995 3.314421,-0.941132 z"
       id="path3105"
       inkscape:connector-curvature="0" />
  </g>
</svg>
